<svg width="104" height="106" viewBox="0 0 104 106" fill="none" xmlns="http://www.w3.org/2000/svg">
<path fill-rule="evenodd" clip-rule="evenodd" d="M57.5 0.499951C69.5 1.24995 80.75 7.24995 89 15.5C98.75 26 104 38.75 104 53.75C104 65.75 99.5 77 92 86.75C84.5 95.75 74 102.5 62 104.75C50 107 38 105.5 27.5 99.5C17 93.5 8.75 84.5 4.25 73.25C-0.250004 62 -1 49.25 2.75 38C6.5 26 13.25 16.25 23.75 9.49995C33.5 2.74995 45.5 -0.250049 57.5 0.499951ZM61.25 97.25C71 95 80 89.75 86.75 81.5C92.75 73.25 96.5 63.5 95.75 53C95.75 41 91.25 29 83 20.75C75.5 13.25 66.5 8.74995 56 7.99995C46.25 7.24995 35.75 9.49995 27.5 15.5C19.25 21.5 13.25 29.75 10.25 40.25C7.25 50 7.25 60.5 11.75 70.25C16.25 80 23 87.5 32 92.75C41 98 51.5 99.5 61.25 97.25Z" fill="white"/>
<path fill-rule="evenodd" clip-rule="evenodd" d="M38 30.4999L43.8275 27.3799L77.5775 49.8799V56.1199L43.8275 78.6199L38 75.4999V30.4999ZM45.5 37.5049V68.4949L68.7425 52.9999L45.5 37.5049Z" fill="#FEF200"/>
</svg>
