<svg width="120" height="116" viewBox="0 0 120 116" fill="none" xmlns="http://www.w3.org/2000/svg">
<g clip-path="url(#clip0_133_128)">
<path d="M60 0C27.35 0 0 23.44 0 53.07C0 67.07 6.27 79.6 16.15 88.98C14.963 92.1182 13.2743 95.0429 11.15 97.64C8.31509 101.085 5.1794 104.271 1.78 107.16C1.03562 107.759 0.494758 108.573 0.231577 109.492C-0.0316034 110.41 -0.00421026 111.388 0.31 112.29C0.627034 113.193 1.21685 113.976 1.9979 114.529C2.77896 115.083 3.71268 115.38 4.67 115.38C14.89 115.38 22.24 115.26 28.9 113.51C34.85 111.93 39.97 108.62 45.19 103.98C50.0235 105.287 54.9949 106.015 60 106.15C92.65 106.15 120 82.7 120 53.07C120 23.44 92.65 0 60 0ZM60 96.92C54.9266 96.8559 49.8836 96.1263 45 94.75C44.2424 94.5548 43.4476 94.5548 42.69 94.75C41.9361 94.951 41.2471 95.3438 40.69 95.89C35.5 100.89 31.69 103.19 26.56 104.54C24.2 105.16 19.66 105.02 16.46 105.27C17.11 104.54 17.71 104.15 18.34 103.39C21.97 98.96 25.28 94.27 26.27 88.96C26.3883 88.1665 26.2951 87.3559 26 86.61C25.7254 85.8328 25.2491 85.1426 24.62 84.61C15 76.68 9.23 65.48 9.23 53.07C9.23 29.16 31.73 9.23 60 9.23C88.27 9.23 110.77 29.16 110.77 53.07C110.77 76.98 88.27 96.92 60 96.92Z" fill="white"/>
<path d="M50.91 29.17C50.1001 29.3587 49.3547 29.759 48.75 30.33L41.83 36.82L48 43.6L53.48 38.41H64.58L68.91 43.32V50.07L57.11 58.07C56.4773 58.4998 55.9617 59.0807 55.61 59.76C55.2574 60.4386 55.082 61.1954 55.1 61.96V71.19H64.33V64.51L76.16 56.58C76.79 56.147 77.3049 55.5669 77.66 54.89C78.0118 54.211 78.1872 53.4545 78.17 52.69V41.58C78.1606 40.4741 77.7522 39.4088 77.02 38.58L70.1 30.76C69.6618 30.2714 69.1318 29.8738 68.54 29.59C67.9386 29.3212 67.2887 29.1783 66.63 29.17H51.92C51.584 29.14 51.246 29.14 50.91 29.17Z" fill="#FEF200"/>
<path d="M64.33 75.77H55.1V85H64.33V75.77Z" fill="#FEF200"/>
</g>
<defs>
<clipPath id="clip0_133_128">
<rect width="120" height="115.39" fill="white"/>
</clipPath>
</defs>
</svg>
