<svg width="140" height="140" viewBox="0 0 140 140" fill="none" xmlns="http://www.w3.org/2000/svg">
<path d="M70 2.69226C56.6878 2.69226 43.6746 6.63979 32.6059 14.0356C21.5372 21.4315 12.9102 31.9435 7.81584 44.2424C2.72149 56.5413 1.38857 70.0746 3.98565 83.131C6.58273 96.1874 12.9932 108.18 22.4063 117.594C31.8195 127.007 43.8125 133.417 56.869 136.014C69.9254 138.611 83.4587 137.278 95.7576 132.184C108.056 127.09 118.568 118.463 125.964 107.394C133.36 96.3254 137.308 83.3121 137.308 69.9999C137.308 61.161 135.567 52.4085 132.184 44.2424C128.802 36.0763 123.844 28.6563 117.594 22.4062C111.344 16.1561 103.924 11.1983 95.7576 7.81575C87.5914 4.43323 78.839 2.69226 70 2.69226ZM70 123.846C59.3503 123.846 48.9397 120.688 40.0847 114.771C31.2298 108.855 24.3282 100.445 20.2527 90.606C16.1772 80.7669 15.1109 69.9402 17.1885 59.4951C19.2662 49.0499 24.3945 39.4555 31.9251 31.925C39.4556 24.3944 49.05 19.2661 59.4952 17.1884C69.9403 15.1108 80.767 16.1771 90.6061 20.2526C100.445 24.3281 108.855 31.2297 114.771 40.0846C120.688 48.9396 123.846 59.3502 123.846 69.9999C123.846 84.2808 118.173 97.9768 108.075 108.075C97.9769 118.173 84.2809 123.846 70 123.846Z" fill="white"/>
<path d="M95.2404 61.5866H78.4135V44.7597C78.4135 42.5283 77.5271 40.3883 75.9492 38.8104C74.3714 37.2326 72.2314 36.3462 70 36.3462C67.7686 36.3462 65.6286 37.2326 64.0508 38.8104C62.473 40.3883 61.5865 42.5283 61.5865 44.7597V61.5866H44.7596C42.5282 61.5866 40.3882 62.473 38.8104 64.0508C37.2326 65.6287 36.3462 67.7686 36.3462 70C36.3462 72.2314 37.2326 74.3714 38.8104 75.9493C40.3882 77.5271 42.5282 78.4135 44.7596 78.4135H61.5865V95.2404C61.5865 97.4718 62.473 99.6118 64.0508 101.19C65.6286 102.767 67.7686 103.654 70 103.654C72.2314 103.654 74.3714 102.767 75.9492 101.19C77.5271 99.6118 78.4135 97.4718 78.4135 95.2404V78.4135H95.2404C97.4718 78.4135 99.6118 77.5271 101.19 75.9493C102.767 74.3714 103.654 72.2314 103.654 70C103.654 67.7686 102.767 65.6287 101.19 64.0508C99.6118 62.473 97.4718 61.5866 95.2404 61.5866Z" fill="#FEF200"/>
</svg>
