<svg width="18" height="16" viewBox="0 0 18 16" fill="none" xmlns="http://www.w3.org/2000/svg">
<path fill-rule="evenodd" clip-rule="evenodd" d="M0.0625 14.5C0.0625 14.2845 0.148103 14.0778 0.300476 13.9255C0.452849 13.7731 0.659512 13.6875 0.875 13.6875H17.125C17.3405 13.6875 17.5472 13.7731 17.6995 13.9255C17.8519 14.0778 17.9375 14.2845 17.9375 14.5C17.9375 14.7155 17.8519 14.9222 17.6995 15.0745C17.5472 15.2269 17.3405 15.3125 17.125 15.3125H0.875C0.659512 15.3125 0.452849 15.2269 0.300476 15.0745C0.148103 14.9222 0.0625 14.7155 0.0625 14.5ZM0.0625 8C0.0625 7.78451 0.148103 7.57785 0.300476 7.42548C0.452849 7.2731 0.659512 7.1875 0.875 7.1875H17.125C17.3405 7.1875 17.5472 7.2731 17.6995 7.42548C17.8519 7.57785 17.9375 7.78451 17.9375 8C17.9375 8.21549 17.8519 8.42215 17.6995 8.57452C17.5472 8.7269 17.3405 8.8125 17.125 8.8125H0.875C0.659512 8.8125 0.452849 8.7269 0.300476 8.57452C0.148103 8.42215 0.0625 8.21549 0.0625 8ZM0.0625 1.5C0.0625 1.28451 0.148103 1.07785 0.300476 0.925476C0.452849 0.773103 0.659512 0.6875 0.875 0.6875H17.125C17.3405 0.6875 17.5472 0.773103 17.6995 0.925476C17.8519 1.07785 17.9375 1.28451 17.9375 1.5C17.9375 1.71549 17.8519 1.92215 17.6995 2.07452C17.5472 2.2269 17.3405 2.3125 17.125 2.3125H0.875C0.659512 2.3125 0.452849 2.2269 0.300476 2.07452C0.148103 1.92215 0.0625 1.71549 0.0625 1.5Z" fill="black"/>
</svg>
